{
  "accessors": [
    {
      "bufferView": 2,
      "componentType": 5126,
      "count": 476,
      "max": [
        67.51060485839844,
        67.51060485839844,
        43.420406341552734
      ],
      "min": [
        -67.51060485839844,
        -67.51060485839844,
        1.4433250427246094
      ],
      "type": "VEC3"
    },
    {
      "bufferView": 2,
      "byteOffset": 5712,
      "componentType": 5126,
      "count": 476,
      "max": [
        0.9997555613517761,
        0.9995782971382141,
        0.9993743896484375
      ],
      "min": [
        -0.9997555017471313,
        -0.9995782375335693,
        -0.9993743896484375
      ],
      "type": "VEC3"
    },
    {
      "bufferView": 3,
      "componentType": 5126,
      "count": 476,
      "max": [
        0.9999856948852539,
        0.9997555613517761,
        0.9665262699127197,
        1.0
      ],
      "min": [
        -0.1280098706483841,
        -0.9968424439430237,
        -0.9665263295173645,
        -1.0
      ],
      "type": "VEC4"
    },
    {
      "bufferView": 1,
      "componentType": 5126,
      "count": 476,
      "max": [
        0.4883439540863037,
        0.9888742566108704
      ],
      "min": [
        0.012720614671707153,
        0.5127722024917603
      ],
      "type": "VEC2"
    },
    {
      "bufferView": 1,
      "byteOffset": 3808,
      "componentType": 5126,
      "count": 476,
      "max": [
        0.4883439540863037,
        0.9888742566108704
      ],
      "min": [
        0.012720614671707153,
        0.5127722024917603
      ],
      "type": "VEC2"
    },
    {
      "bufferView": 0,
      "componentType": 5125,
      "count": 2844,
      "type": "SCALAR"
    },
    {
      "bufferView": 2,
      "byteOffset": 11424,
      "componentType": 5126,
      "count": 476,
      "max": [
        67.51060485839844,
        67.51060485839844,
        43.420406341552734
      ],
      "min": [
        -67.51060485839844,
        -67.51060485839844,
        1.4433250427246094
      ],
      "type": "VEC3"
    },
    {
      "bufferView": 2,
      "byteOffset": 17136,
      "componentType": 5126,
      "count": 476,
      "max": [
        0.9997555613517761,
        0.9995782971382141,
        0.9993743896484375
      ],
      "min": [
        -0.9997555017471313,
        -0.9995782375335693,
        -0.9993743896484375
      ],
      "type": "VEC3"
    },
    {
      "bufferView": 3,
      "byteOffset": 7616,
      "componentType": 5126,
      "count": 476,
      "max": [
        0.9999856948852539,
        0.9997555613517761,
        0.9665263295173645,
        1.0
      ],
      "min": [
        -0.1280098706483841,
        -0.9968424439430237,
        -0.9665262699127197,
        -1.0
      ],
      "type": "VEC4"
    },
    {
      "bufferView": 1,
      "byteOffset": 7616,
      "componentType": 5126,
      "count": 476,
      "max": [
        0.9911775588989258,
        0.9888742566108704
      ],
      "min": [
        0.5155542492866516,
        0.5127722024917603
      ],
      "type": "VEC2"
    },
    {
      "bufferView": 1,
      "byteOffset": 11424,
      "componentType": 5126,
      "count": 476,
      "max": [
        0.9911775588989258,
        0.9888742566108704
      ],
      "min": [
        0.5155542492866516,
        0.5127722024917603
      ],
      "type": "VEC2"
    },
    {
      "bufferView": 0,
      "byteOffset": 11376,
      "componentType": 5125,
      "count": 2844,
      "type": "SCALAR"
    },
    {
      "bufferView": 2,
      "byteOffset": 22848,
      "componentType": 5126,
      "count": 476,
      "max": [
        67.51060485839844,
        67.51060485839844,
        43.420406341552734
      ],
      "min": [
        -67.51060485839844,
        -67.51060485839844,
        1.4433250427246094
      ],
      "type": "VEC3"
    },
    {
      "bufferView": 2,
      "byteOffset": 28560,
      "componentType": 5126,
      "count": 476,
      "max": [
        0.9997555613517761,
        0.9995782971382141,
        0.9993743896484375
      ],
      "min": [
        -0.9997555017471313,
        -0.9995782375335693,
        -0.9993743896484375
      ],
      "type": "VEC3"
    },
    {
      "bufferView": 3,
      "byteOffset": 15232,
      "componentType": 5126,
      "count": 476,
      "max": [
        0.9999856948852539,
        0.9997555613517761,
        0.9665263295173645,
        1.0
      ],
      "min": [
        -0.1280098706483841,
        -0.9968424439430237,
        -0.9665262699127197,
        -1.0
      ],
      "type": "VEC4"
    },
    {
      "bufferView": 1,
      "byteOffset": 15232,
      "componentType": 5126,
      "count": 476,
      "max": [
        0.49040478467941284,
        0.4881014823913574
      ],
      "min": [
        0.014781475067138672,
        0.011999428272247314
      ],
      "type": "VEC2"
    },
    {
      "bufferView": 1,
      "byteOffset": 19040,
      "componentType": 5126,
      "count": 476,
      "max": [
        0.49040478467941284,
        0.4881014823913574
      ],
      "min": [
        0.014781475067138672,
        0.011999428272247314
      ],
      "type": "VEC2"
    },
    {
      "bufferView": 0,
      "byteOffset": 22752,
      "componentType": 5125,
      "count": 2844,
      "type": "SCALAR"
    },
    {
      "bufferView": 2,
      "byteOffset": 34272,
      "componentType": 5126,
      "count": 476,
      "max": [
        67.51060485839844,
        67.51060485839844,
        43.420406341552734
      ],
      "min": [
        -67.51060485839844,
        -67.51060485839844,
        1.4433250427246094
      ],
      "type": "VEC3"
    },
    {
      "bufferView": 2,
      "byteOffset": 39984,
      "componentType": 5126,
      "count": 476,
      "max": [
        0.9997555613517761,
        0.9995782971382141,
        0.9993743896484375
      ],
      "min": [
        -0.9997555017471313,
        -0.9995782375335693,
        -0.9993743896484375
      ],
      "type": "VEC3"
    },
    {
      "bufferView": 3,
      "byteOffset": 22848,
      "componentType": 5126,
      "count": 476,
      "max": [
        0.1280098706483841,
        0.9968424439430237,
        0.9665263295173645,
        1.0
      ],
      "min": [
        -0.9999856948852539,
        -0.9997555017471313,
        -0.9665263295173645,
        -1.0
      ],
      "type": "VEC4"
    },
    {
      "bufferView": 1,
      "byteOffset": 22848,
      "componentType": 5126,
      "count": 476,
      "max": [
        0.9911775588989258,
        0.4881015419960022
      ],
      "min": [
        0.5155541896820068,
        0.011999368667602539
      ],
      "type": "VEC2"
    },
    {
      "bufferView": 1,
      "byteOffset": 26656,
      "componentType": 5126,
      "count": 476,
      "max": [
        0.9911775588989258,
        0.4881015419960022
      ],
      "min": [
        0.5155541896820068,
        0.011999368667602539
      ],
      "type": "VEC2"
    },
    {
      "bufferView": 0,
      "byteOffset": 34128,
      "componentType": 5125,
      "count": 2844,
      "type": "SCALAR"
    }
  ],
  "asset": {
    "extras": {
      "author": "khanhnguyen1189 (https://sketchfab.com/khanhnguyen1189)",
      "license": "CC-BY-4.0 (http://creativecommons.org/licenses/by/4.0/)",
      "source": "https://sketchfab.com/3d-models/pillow-ffedc1b62f8d485bb19392c6d33fb71d",
      "title": "Pillow"
    },
    "generator": "Sketchfab-12.67.0",
    "version": "2.0"
  },
  "bufferViews": [
    {
      "buffer": 0,
      "byteLength": 45504,
      "name": "floatBufferViews",
      "target": 34963
    },
    {
      "buffer": 0,
      "byteLength": 30464,
      "byteOffset": 45504,
      "byteStride": 8,
      "name": "floatBufferViews",
      "target": 34962
    },
    {
      "buffer": 0,
      "byteLength": 45696,
      "byteOffset": 75968,
      "byteStride": 12,
      "name": "floatBufferViews",
      "target": 34962
    },
    {
      "buffer": 0,
      "byteLength": 30464,
      "byteOffset": 121664,
      "byteStride": 16,
      "name": "floatBufferViews",
      "target": 34962
    }
  ],
  "buffers": [
    {
      "byteLength": 152128,
      "uri": "scene.bin"
    }
  ],
  "images": [
    {
      "uri": "textures/material_baseColor.png"
    },
    {
      "uri": "textures/material_normal.png"
    }
  ],
  "materials": [
    {
      "doubleSided": true,
      "name": "material",
      "normalTexture": {
        "index": 1
      },
      "pbrMetallicRoughness": {
        "baseColorTexture": {
          "index": 0
        },
        "metallicFactor": 0.0,
        "roughnessFactor": 0.6
      }
    }
  ],
  "meshes": [
    {
      "name": "Box001_Goi_0",
      "primitives": [
        {
          "attributes": {
            "NORMAL": 1,
            "POSITION": 0,
            "TANGENT": 2,
            "TEXCOORD_0": 3,
            "TEXCOORD_1": 4
          },
          "indices": 5,
          "material": 0,
          "mode": 4
        }
      ]
    },
    {
      "name": "Box002_Goi_0",
      "primitives": [
        {
          "attributes": {
            "NORMAL": 7,
            "POSITION": 6,
            "TANGENT": 8,
            "TEXCOORD_0": 9,
            "TEXCOORD_1": 10
          },
          "indices": 11,
          "material": 0,
          "mode": 4
        }
      ]
    },
    {
      "name": "Box003_Goi_0",
      "primitives": [
        {
          "attributes": {
            "NORMAL": 13,
            "POSITION": 12,
            "TANGENT": 14,
            "TEXCOORD_0": 15,
            "TEXCOORD_1": 16
          },
          "indices": 17,
          "material": 0,
          "mode": 4
        }
      ]
    },
    {
      "name": "Box004_Goi_0",
      "primitives": [
        {
          "attributes": {
            "NORMAL": 19,
            "POSITION": 18,
            "TANGENT": 20,
            "TEXCOORD_0": 21,
            "TEXCOORD_1": 22
          },
          "indices": 23,
          "material": 0,
          "mode": 4
        }
      ]
    }
  ],
  "nodes": [
    {
      "children": [
        1
      ],
      "matrix": [
        0.011950201354920864,
        0.0,
        0.0,
        0.0,
        0.0,
        2.653477738627977e-18,
        -0.011950201354920864,
        0.0,
        0.0,
        0.011950201354920864,
        2.653477738627977e-18,
        0.0,
        0.0,
        0.0,
        0.0,
        1.0
      ],
      "name": "Sketchfab_model"
    },
    {
      "children": [
        2
      ],
      "matrix": [
        1.0,
        0.0,
        0.0,
        0.0,
        0.0,
        0.0,
        1.0,
        0.0,
        0.0,
        -1.0,
        0.0,
        0.0,
        0.0,
        0.0,
        0.0,
        1.0
      ],
      "name": "Goi_Tst.FBX"
    },
    {
      "children": [
        3,
        6,
        9,
        12,
        15
      ],
      "name": "RootNode"
    },
    {
      "children": [
        4
      ],
      "matrix": [
        1.0,
        0.0,
        0.0,
        0.0,
        0.0,
        -0.9396926450590068,
        -0.3420200766358722,
        0.0,
        0.0,
        0.4727753370498049,
        -1.2989398498497349,
        0.0,
        0.0,
        0.0,
        0.0,
        1.0
      ],
      "name": "Box001"
    },
    {
      "children": [
        5
      ],
      "matrix": [
        1.0,
        0.0,
        -0.0,
        0.0,
        0.0,
        1.0,
        0.0,
        0.0,
        0.0,
        0.0,
        1.0,
        0.0,
        0.0,
        0.0,
        -22.431865692138672,
        1.0
      ],
      "name": "Object_4"
    },
    {
      "mesh": 0,
      "name": "Box001_Goi_0"
    },
    {
      "children": [
        7
      ],
      "matrix": [
        1.0,
        0.0,
        0.0,
        0.0,
        0.0,
        1.0,
        0.0,
        0.0,
        0.0,
        0.0,
        1.0,
        0.0,
        -145.35032653808594,
        94.1151123046875,
        -296.3298645019531,
        1.0
      ],
      "name": "Omni001"
    },
    {
      "children": [
        8
      ],
      "matrix": [
        1.0,
        0.0,
        0.0,
        0.0,
        0.0,
        2.220446049250313e-16,
        1.0,
        0.0,
        0.0,
        -1.0,
        2.220446049250313e-16,
        0.0,
        0.0,
        0.0,
        0.0,
        1.0
      ],
      "name": "Object_7"
    },
    {
      "name": "Object_8"
    },
    {
      "children": [
        10
      ],
      "matrix": [
        1.0,
        0.0,
        0.0,
        0.0,
        0.0,
        -0.9396926450590068,
        -0.3420200766358722,
        0.0,
        0.0,
        0.4727753370498049,
        -1.2989398498497349,
        0.0,
        0.0,
        0.0,
        -58.33161926269531,
        1.0
      ],
      "name": "Box002"
    },
    {
      "children": [
        11
      ],
      "matrix": [
        1.0,
        0.0,
        -0.0,
        0.0,
        0.0,
        1.0,
        0.0,
        0.0,
        0.0,
        0.0,
        1.0,
        0.0,
        0.0,
        0.0,
        -22.431865692138672,
        1.0
      ],
      "name": "Object_10"
    },
    {
      "mesh": 1,
      "name": "Box002_Goi_0"
    },
    {
      "children": [
        13
      ],
      "matrix": [
        1.0,
        0.0,
        0.0,
        0.0,
        0.0,
        -0.9396926450590068,
        -0.3420200766358722,
        0.0,
        0.0,
        0.4727753370498049,
        -1.2989398498497349,
        0.0,
        2.5907775125233456e-06,
        2.5907775125233456e-06,
        -117.60169982910156,
        1.0
      ],
      "name": "Box003"
    },
    {
      "children": [
        14
      ],
      "matrix": [
        1.0,
        0.0,
        -0.0,
        0.0,
        0.0,
        1.0,
        0.0,
        0.0,
        0.0,
        0.0,
        1.0,
        0.0,
        0.0,
        0.0,
        -22.431865692138672,
        1.0
      ],
      "name": "Object_13"
    },
    {
      "mesh": 2,
      "name": "Box003_Goi_0"
    },
    {
      "children": [
        16
      ],
      "matrix": [
        1.0,
        0.0,
        0.0,
        0.0,
        0.0,
        -0.9396926450590068,
        -0.3420200766358722,
        0.0,
        0.0,
        0.4727753370498049,
        -1.2989398498497349,
        0.0,
        5.2334748943394516e-06,
        5.2334748943394516e-06,
        -178.0595703125,
        1.0
      ],
      "name": "Box004"
    },
    {
      "children": [
        17
      ],
      "matrix": [
        1.0,
        0.0,
        -0.0,
        0.0,
        0.0,
        1.0,
        0.0,
        0.0,
        0.0,
        0.0,
        1.0,
        0.0,
        0.0,
        0.0,
        -22.431865692138672,
        1.0
      ],
      "name": "Object_16"
    },
    {
      "mesh": 3,
      "name": "Box004_Goi_0"
    }
  ],
  "samplers": [
    {
      "magFilter": 9729,
      "minFilter": 9987,
      "wrapS": 10497,
      "wrapT": 10497
    }
  ],
  "scene": 0,
  "scenes": [
    {
      "name": "Sketchfab_Scene",
      "nodes": [
        0
      ]
    }
  ],
  "textures": [
    {
      "sampler": 0,
      "source": 0
    },
    {
      "sampler": 0,
      "source": 1
    }
  ]
}
