{
  "accessors": [
    {
      "bufferView": 2,
      "componentType": 5126,
      "count": 2261,
      "max": [
        1.2159357070922852,
        -0.010604381561279297,
        2.7888894081115723
      ],
      "min": [
        -4.107942581176758,
        -6.805632591247559,
        -4.731512069702148
      ],
      "type": "VEC3"
    },
    {
      "bufferView": 2,
      "byteOffset": 27132,
      "componentType": 5126,
      "count": 2261,
      "max": [
        0.9995542168617249,
        0.9971320629119873,
        0.9990078210830688
      ],
      "min": [
        -0.9998631477355957,
        -0.9998841285705566,
        -0.9990893006324768
      ],
      "type": "VEC3"
    },
    {
      "bufferView": 1,
      "componentType": 5126,
      "count": 2261,
      "max": [
        0.9831669926643372,
        0.9955236315727234
      ],
      "min": [
        0.007756326347589493,
        0.02070075273513794
      ],
      "type": "VEC2"
    },
    {
      "bufferView": 0,
      "componentType": 5125,
      "count": 10644,
      "type": "SCALAR"
    },
    {
      "bufferView": 2,
      "byteOffset": 54264,
      "componentType": 5126,
      "count": 2074,
      "max": [
        3.344679355621338,
        1.9315295219421387,
        5.444179058074951
      ],
      "min": [
        -6.4365057945251465,
        -9.68858528137207,
        -7.571747303009033
      ],
      "type": "VEC3"
    },
    {
      "bufferView": 2,
      "byteOffset": 79152,
      "componentType": 5126,
      "count": 2074,
      "max": [
        0.9997422099113464,
        0.9957242012023926,
        0.9998809099197388
      ],
      "min": [
        -0.9999396204948425,
        -0.9999765157699585,
        -0.9988366961479187
      ],
      "type": "VEC3"
    },
    {
      "bufferView": 3,
      "componentType": 5126,
      "count": 2074,
      "max": [
        0.9997612237930298,
        0.9894495606422424,
        0.9986092448234558,
        1.0
      ],
      "min": [
        -0.9991942048072815,
        -0.9906895756721497,
        -0.9996917247772217,
        -1.0
      ],
      "type": "VEC4"
    },
    {
      "bufferView": 1,
      "byteOffset": 18088,
      "componentType": 5126,
      "count": 2074,
      "max": [
        1.549323558807373,
        2.077890396118164
      ],
      "min": [
        -3.608177661895752,
        -1.620626449584961
      ],
      "type": "VEC2"
    },
    {
      "bufferView": 1,
      "byteOffset": 34680,
      "componentType": 5126,
      "count": 2074,
      "max": [
        1.549323558807373,
        2.077890396118164
      ],
      "min": [
        -3.608177661895752,
        -1.620626449584961
      ],
      "type": "VEC2"
    },
    {
      "bufferView": 1,
      "byteOffset": 51272,
      "componentType": 5126,
      "count": 2074,
      "max": [
        1.549323558807373,
        2.077890396118164
      ],
      "min": [
        -3.608177661895752,
        -1.620626449584961
      ],
      "type": "VEC2"
    },
    {
      "bufferView": 0,
      "byteOffset": 42576,
      "componentType": 5125,
      "count": 11100,
      "type": "SCALAR"
    },
    {
      "bufferView": 2,
      "byteOffset": 104040,
      "componentType": 5126,
      "count": 1312,
      "max": [
        3.344679355621338,
        1.9315295219421387,
        5.444179058074951
      ],
      "min": [
        -6.4365057945251465,
        -9.68858528137207,
        -7.571747303009033
      ],
      "type": "VEC3"
    },
    {
      "bufferView": 2,
      "byteOffset": 119784,
      "componentType": 5126,
      "count": 1312,
      "max": [
        0.9974605441093445,
        0.9812676906585693,
        0.9999009966850281
      ],
      "min": [
        -0.9997550845146179,
        -0.9874399900436401,
        -0.9993049502372742
      ],
      "type": "VEC3"
    },
    {
      "bufferView": 3,
      "byteOffset": 33184,
      "componentType": 5126,
      "count": 1312,
      "max": [
        0.9934206008911133,
        0.9980068206787109,
        0.9943985342979431,
        -1.0
      ],
      "min": [
        -0.9964423775672913,
        -0.9878028631210327,
        -0.9996671676635742,
        -1.0
      ],
      "type": "VEC4"
    },
    {
      "bufferView": 1,
      "byteOffset": 67864,
      "componentType": 5126,
      "count": 1312,
      "max": [
        -1.0921710729599,
        2.077890634536743
      ],
      "min": [
        -3.0453245639801025,
        -1.312265396118164
      ],
      "type": "VEC2"
    },
    {
      "bufferView": 1,
      "byteOffset": 78360,
      "componentType": 5126,
      "count": 1312,
      "max": [
        -1.0921710729599,
        2.077890634536743
      ],
      "min": [
        -3.0453245639801025,
        -1.312265396118164
      ],
      "type": "VEC2"
    },
    {
      "bufferView": 1,
      "byteOffset": 88856,
      "componentType": 5126,
      "count": 1312,
      "max": [
        -1.0921710729599,
        2.077890634536743
      ],
      "min": [
        -3.0453245639801025,
        -1.312265396118164
      ],
      "type": "VEC2"
    },
    {
      "bufferView": 0,
      "byteOffset": 86976,
      "componentType": 5125,
      "count": 6996,
      "type": "SCALAR"
    },
    {
      "bufferView": 2,
      "byteOffset": 135528,
      "componentType": 5126,
      "count": 38,
      "max": [
        -4.057187557220459,
        -7.489702224731445,
        0.5072380304336548
      ],
      "min": [
        -4.396907329559326,
        -8.21505069732666,
        -1.1361262798309326
      ],
      "type": "VEC3"
    },
    {
      "bufferView": 2,
      "byteOffset": 135984,
      "componentType": 5126,
      "count": 38,
      "max": [
        0.700921356678009,
        0.689103364944458,
        0.9690767526626587
      ],
      "min": [
        -0.7522380948066711,
        -0.701636552810669,
        -0.9551420211791992
      ],
      "type": "VEC3"
    },
    {
      "bufferView": 3,
      "byteOffset": 54176,
      "componentType": 5126,
      "count": 38,
      "max": [
        0.7227627635002136,
        0.6727072596549988,
        0.9863741397857666,
        -1.0
      ],
      "min": [
        -0.7080724239349365,
        -0.6871334314346313,
        -0.15844669938087463,
        -1.0
      ],
      "type": "VEC4"
    },
    {
      "bufferView": 1,
      "byteOffset": 99352,
      "componentType": 5126,
      "count": 38,
      "max": [
        1.2939773797988892,
        0.7704177498817444
      ],
      "min": [
        -0.34729236364364624,
        0.05013859272003174
      ],
      "type": "VEC2"
    },
    {
      "bufferView": 1,
      "byteOffset": 99656,
      "componentType": 5126,
      "count": 38,
      "max": [
        1.2939773797988892,
        0.7704177498817444
      ],
      "min": [
        -0.34729236364364624,
        0.05013859272003174
      ],
      "type": "VEC2"
    },
    {
      "bufferView": 1,
      "byteOffset": 99960,
      "componentType": 5126,
      "count": 38,
      "max": [
        1.2939773797988892,
        0.7704177498817444
      ],
      "min": [
        -0.34729236364364624,
        0.05013859272003174
      ],
      "type": "VEC2"
    },
    {
      "bufferView": 1,
      "byteOffset": 100264,
      "componentType": 5126,
      "count": 38,
      "max": [
        1.2939773797988892,
        0.7704177498817444
      ],
      "min": [
        -0.34729236364364624,
        0.05013859272003174
      ],
      "type": "VEC2"
    },
    {
      "bufferView": 0,
      "byteOffset": 114960,
      "componentType": 5125,
      "count": 84,
      "type": "SCALAR"
    }
  ],
  "asset": {
    "extras": {
      "author": "matija1671 (https://sketchfab.com/matija1671)",
      "license": "SKETCHFAB Standard (https://sketchfab.com/licenses)",
      "source": "https://sketchfab.com/3d-models/sleeping-pega-dog-with-bed-88c204abd899489bb8defbc9f105a8bc",
      "title": "Sleeping Pega dog with bed"
    },
    "generator": "Sketchfab-16.62.0",
    "version": "2.0"
  },
  "bufferViews": [
    {
      "buffer": 0,
      "byteLength": 115296,
      "name": "floatBufferViews",
      "target": 34963
    },
    {
      "buffer": 0,
      "byteLength": 100568,
      "byteOffset": 115296,
      "byteStride": 8,
      "name": "floatBufferViews",
      "target": 34962
    },
    {
      "buffer": 0,
      "byteLength": 136440,
      "byteOffset": 215864,
      "byteStride": 12,
      "name": "floatBufferViews",
      "target": 34962
    },
    {
      "buffer": 0,
      "byteLength": 54784,
      "byteOffset": 352304,
      "byteStride": 16,
      "name": "floatBufferViews",
      "target": 34962
    }
  ],
  "buffers": [
    {
      "byteLength": 407088,
      "uri": "scene.bin"
    }
  ],
  "extensionsUsed": [
    "KHR_materials_specular"
  ],
  "images": [
    {
      "uri": "textures/Pega.004_baseColor.png"
    },
    {
      "uri": "textures/Pega.004_specularf0.png"
    },
    {
      "uri": "textures/Pega_Bed_1_1K_metallicRoughness.png"
    },
    {
      "uri": "textures/Pega_Bed_1_1K_normal.jpeg"
    },
    {
      "uri": "textures/Pega_Bed_3_1K_baseColor.jpeg"
    },
    {
      "uri": "textures/Pega_Bed_3_1K_metallicRoughness.png"
    },
    {
      "uri": "textures/Pega_Bed_3_1K_normal.jpeg"
    }
  ],
  "materials": [
    {
      "doubleSided": true,
      "extensions": {
        "KHR_materials_specular": {
          "specularColorFactor": [
            1.0,
            1.0,
            1.0
          ],
          "specularFactor": 1.0,
          "specularTexture": {
            "index": 1
          }
        }
      },
      "name": "Pega.004",
      "pbrMetallicRoughness": {
        "baseColorTexture": {
          "index": 0
        },
        "metallicFactor": 0.0,
        "roughnessFactor": 0.870175
      }
    },
    {
      "doubleSided": true,
      "name": "Pega_Bed_1_1K",
      "normalTexture": {
        "index": 3
      },
      "pbrMetallicRoughness": {
        "baseColorFactor": [
          0.693868,
          0.686686,
          0.361307,
          1.0
        ],
        "metallicFactor": 0.0,
        "metallicRoughnessTexture": {
          "index": 2
        }
      }
    },
    {
      "doubleSided": true,
      "name": "Pega_Bed_2_1K",
      "normalTexture": {
        "index": 3
      },
      "pbrMetallicRoughness": {
        "baseColorFactor": [
          0.0930569,
          0.155927,
          0.187823,
          1.0
        ],
        "metallicFactor": 0.0,
        "metallicRoughnessTexture": {
          "index": 2
        }
      }
    },
    {
      "doubleSided": true,
      "name": "Pega_Bed_3_1K",
      "normalTexture": {
        "index": 6,
        "scale": 0.3
      },
      "pbrMetallicRoughness": {
        "baseColorTexture": {
          "index": 4
        },
        "metallicFactor": 0.0,
        "metallicRoughnessTexture": {
          "index": 5
        },
        "roughnessFactor": 0.8
      }
    }
  ],
  "meshes": [
    {
      "name": "Object_0",
      "primitives": [
        {
          "attributes": {
            "NORMAL": 1,
            "POSITION": 0,
            "TEXCOORD_0": 2
          },
          "indices": 3,
          "material": 0,
          "mode": 4
        }
      ]
    },
    {
      "name": "Object_1",
      "primitives": [
        {
          "attributes": {
            "NORMAL": 5,
            "POSITION": 4,
            "TANGENT": 6,
            "TEXCOORD_0": 7,
            "TEXCOORD_1": 8,
            "TEXCOORD_2": 9
          },
          "indices": 10,
          "material": 1,
          "mode": 4
        }
      ]
    },
    {
      "name": "Object_2",
      "primitives": [
        {
          "attributes": {
            "NORMAL": 12,
            "POSITION": 11,
            "TANGENT": 13,
            "TEXCOORD_0": 14,
            "TEXCOORD_1": 15,
            "TEXCOORD_2": 16
          },
          "indices": 17,
          "material": 2,
          "mode": 4
        }
      ]
    },
    {
      "name": "Object_3",
      "primitives": [
        {
          "attributes": {
            "NORMAL": 19,
            "POSITION": 18,
            "TANGENT": 20,
            "TEXCOORD_0": 21,
            "TEXCOORD_1": 22,
            "TEXCOORD_2": 23,
            "TEXCOORD_3": 24
          },
          "indices": 25,
          "material": 3,
          "mode": 4
        }
      ]
    }
  ],
  "nodes": [
    {
      "children": [
        1
      ],
      "matrix": [
        1.0,
        0.0,
        0.0,
        0.0,
        0.0,
        2.220446049250313e-16,
        -1.0,
        0.0,
        0.0,
        1.0,
        2.220446049250313e-16,
        0.0,
        0.0,
        0.0,
        0.0,
        1.0
      ],
      "name": "Sketchfab_model"
    },
    {
      "children": [
        2
      ],
      "name": "root"
    },
    {
      "children": [
        3
      ],
      "matrix": [
        1.0,
        0.0,
        0.0,
        0.0,
        0.0,
        2.220446049250313e-16,
        1.0,
        0.0,
        0.0,
        -1.0,
        2.220446049250313e-16,
        0.0,
        0.0,
        0.0,
        0.0,
        1.0
      ],
      "name": "GLTF_SceneRootNode"
    },
    {
      "children": [
        4,
        5,
        6,
        7
      ],
      "matrix": [
        -0.10065649181269672,
        -0.22008860354225768,
        -0.1990829593376653,
        0.0,
        0.0022899883176231025,
        0.20964010332539848,
        -0.23291747285631526,
        0.0,
        0.29676226354578544,
        -0.07626790874938523,
        -0.06572813093951983,
        0.0,
        0.018291473388671875,
        1.0133097171783447,
        -3.5108678340911865,
        1.0
      ],
      "name": "Pega Sleep.001_0"
    },
    {
      "mesh": 0,
      "name": "Object_4"
    },
    {
      "mesh": 1,
      "name": "Object_5"
    },
    {
      "mesh": 2,
      "name": "Object_6"
    },
    {
      "mesh": 3,
      "name": "Object_7"
    }
  ],
  "samplers": [
    {
      "magFilter": 9729,
      "minFilter": 9987,
      "wrapS": 10497,
      "wrapT": 10497
    }
  ],
  "scene": 0,
  "scenes": [
    {
      "name": "Sketchfab_Scene",
      "nodes": [
        0
      ]
    }
  ],
  "textures": [
    {
      "sampler": 0,
      "source": 0
    },
    {
      "sampler": 0,
      "source": 1
    },
    {
      "sampler": 0,
      "source": 2
    },
    {
      "sampler": 0,
      "source": 3
    },
    {
      "sampler": 0,
      "source": 4
    },
    {
      "sampler": 0,
      "source": 5
    },
    {
      "sampler": 0,
      "source": 6
    }
  ]
}
