{
  "accessors": [
    {
      "bufferView": 2,
      "componentType": 5126,
      "count": 7907,
      "max": [
        0.5649999976158142,
        0.2286819964647293,
        0.8159719705581665
      ],
      "min": [
        -0.5649999976158142,
        -0.3013179898262024,
        0.0
      ],
      "type": "VEC3"
    },
    {
      "bufferView": 2,
      "byteOffset": 94884,
      "componentType": 5126,
      "count": 7907,
      "max": [
        1.0,
        1.0,
        1.0
      ],
      "min": [
        -1.0,
        -1.0,
        -1.0
      ],
      "type": "VEC3"
    },
    {
      "bufferView": 1,
      "componentType": 5126,
      "count": 7907,
      "max": [
        0.9199910163879395,
        1.0
      ],
      "min": [
        0.0,
        0.0
      ],
      "type": "VEC2"
    },
    {
      "bufferView": 0,
      "componentType": 5125,
      "count": 13206,
      "type": "SCALAR"
    },
    {
      "bufferView": 2,
      "byteOffset": 189768,
      "componentType": 5126,
      "count": 192,
      "max": [
        0.46000000834465027,
        0.18253600597381592,
        0.791375994682312
      ],
      "min": [
        -0.46000000834465027,
        -0.25204798579216003,
        0.1912350058555603
      ],
      "type": "VEC3"
    },
    {
      "bufferView": 2,
      "byteOffset": 192072,
      "componentType": 5126,
      "count": 192,
      "max": [
        1.0,
        1.0,
        1.0
      ],
      "min": [
        -1.0,
        -1.0,
        -1.0
      ],
      "type": "VEC3"
    },
    {
      "bufferView": 1,
      "byteOffset": 63256,
      "componentType": 5126,
      "count": 192,
      "max": [
        0.875,
        1.0
      ],
      "min": [
        0.125,
        0.0
      ],
      "type": "VEC2"
    },
    {
      "bufferView": 0,
      "byteOffset": 52824,
      "componentType": 5125,
      "count": 336,
      "type": "SCALAR"
    },
    {
      "bufferView": 2,
      "byteOffset": 194376,
      "componentType": 5126,
      "count": 15488,
      "max": [
        0.3181380033493042,
        -0.25991499423980713,
        0.6414949893951416
      ],
      "min": [
        -0.3173440098762512,
        -0.2809450030326843,
        0.6055390238761902
      ],
      "type": "VEC3"
    },
    {
      "bufferView": 2,
      "byteOffset": 380232,
      "componentType": 5126,
      "count": 15488,
      "max": [
        0.99879390001297,
        0.9507843852043152,
        0.99879390001297
      ],
      "min": [
        -0.99879390001297,
        -1.0,
        -0.99879390001297
      ],
      "type": "VEC3"
    },
    {
      "bufferView": 1,
      "byteOffset": 64792,
      "componentType": 5126,
      "count": 15488,
      "max": [
        0.8524770140647888,
        0.836633026599884
      ],
      "min": [
        0.17768000066280365,
        0.16091099381446838
      ],
      "type": "VEC2"
    },
    {
      "bufferView": 0,
      "byteOffset": 54168,
      "componentType": 5125,
      "count": 23412,
      "type": "SCALAR"
    },
    {
      "bufferView": 2,
      "byteOffset": 566088,
      "componentType": 5126,
      "count": 15488,
      "max": [
        0.3181380033493042,
        -0.25991499423980713,
        0.46467599272727966
      ],
      "min": [
        -0.3173440098762512,
        -0.2809450030326843,
        0.42871901392936707
      ],
      "type": "VEC3"
    },
    {
      "bufferView": 2,
      "byteOffset": 751944,
      "componentType": 5126,
      "count": 15488,
      "max": [
        0.99879390001297,
        0.9507843852043152,
        0.99879390001297
      ],
      "min": [
        -0.99879390001297,
        -1.0,
        -0.99879390001297
      ],
      "type": "VEC3"
    },
    {
      "bufferView": 1,
      "byteOffset": 188696,
      "componentType": 5126,
      "count": 15488,
      "max": [
        0.8524770140647888,
        0.836633026599884
      ],
      "min": [
        0.17768000066280365,
        0.16091099381446838
      ],
      "type": "VEC2"
    },
    {
      "bufferView": 0,
      "byteOffset": 147816,
      "componentType": 5125,
      "count": 23412,
      "type": "SCALAR"
    },
    {
      "bufferView": 2,
      "byteOffset": 937800,
      "componentType": 5126,
      "count": 15488,
      "max": [
        0.3181380033493042,
        -0.25991499423980713,
        0.28785601258277893
      ],
      "min": [
        -0.3173440098762512,
        -0.2809450030326843,
        0.25189998745918274
      ],
      "type": "VEC3"
    },
    {
      "bufferView": 2,
      "byteOffset": 1123656,
      "componentType": 5126,
      "count": 15488,
      "max": [
        0.99879390001297,
        0.9507843852043152,
        0.99879390001297
      ],
      "min": [
        -0.99879390001297,
        -1.0,
        -0.99879390001297
      ],
      "type": "VEC3"
    },
    {
      "bufferView": 1,
      "byteOffset": 312600,
      "componentType": 5126,
      "count": 15488,
      "max": [
        0.8524770140647888,
        0.836633026599884
      ],
      "min": [
        0.17768000066280365,
        0.16091099381446838
      ],
      "type": "VEC2"
    },
    {
      "bufferView": 0,
      "byteOffset": 241464,
      "componentType": 5125,
      "count": 23412,
      "type": "SCALAR"
    }
  ],
  "asset": {
    "extras": {
      "author": "Wazahole (https://sketchfab.com/Wazahole)",
      "license": "CC-BY-4.0 (http://creativecommons.org/licenses/by/4.0/)",
      "source": "https://sketchfab.com/3d-models/commode-4-tiroirs-5a630be05a8e4cad98e09e32293734aa",
      "title": "Commode 4 tiroirs"
    },
    "generator": "Sketchfab-16.61.0",
    "version": "2.0"
  },
  "bufferViews": [
    {
      "buffer": 0,
      "byteLength": 335112,
      "name": "floatBufferViews",
      "target": 34963
    },
    {
      "buffer": 0,
      "byteLength": 436504,
      "byteOffset": 335112,
      "byteStride": 8,
      "name": "floatBufferViews",
      "target": 34962
    },
    {
      "buffer": 0,
      "byteLength": 1309512,
      "byteOffset": 771616,
      "byteStride": 12,
      "name": "floatBufferViews",
      "target": 34962
    }
  ],
  "buffers": [
    {
      "byteLength": 2081128,
      "uri": "scene.bin"
    }
  ],
  "extensionsUsed": [
    "KHR_materials_specular"
  ],
  "images": [
    {
      "uri": "textures/Bois_baseColor.jpeg"
    },
    {
      "uri": "textures/Matriau_baseColor.jpeg"
    }
  ],
  "materials": [
    {
      "doubleSided": true,
      "name": "Bois",
      "pbrMetallicRoughness": {
        "baseColorTexture": {
          "index": 0
        },
        "metallicFactor": 0.0,
        "roughnessFactor": 0.41295363947775837
      }
    },
    {
      "doubleSided": true,
      "name": "Int_tiroir",
      "pbrMetallicRoughness": {
        "baseColorFactor": [
          0.385585,
          0.242517,
          0.140564,
          1.0
        ],
        "metallicFactor": 0.0,
        "roughnessFactor": 0.8011823178082373
      }
    },
    {
      "doubleSided": true,
      "extensions": {
        "KHR_materials_specular": {
          "specularColorFactor": [
            1.0,
            1.0,
            1.0
          ],
          "specularFactor": 0.4739062061903426
        }
      },
      "name": "Matriau",
      "pbrMetallicRoughness": {
        "baseColorTexture": {
          "index": 1
        },
        "metallicFactor": 0.9249551998634662,
        "roughnessFactor": 0.5139032804671405
      }
    }
  ],
  "meshes": [
    {
      "name": "Object_0",
      "primitives": [
        {
          "attributes": {
            "NORMAL": 1,
            "POSITION": 0,
            "TEXCOORD_0": 2
          },
          "indices": 3,
          "material": 0,
          "mode": 4
        }
      ]
    },
    {
      "name": "Object_1",
      "primitives": [
        {
          "attributes": {
            "NORMAL": 5,
            "POSITION": 4,
            "TEXCOORD_0": 6
          },
          "indices": 7,
          "material": 1,
          "mode": 4
        }
      ]
    },
    {
      "name": "Object_2",
      "primitives": [
        {
          "attributes": {
            "NORMAL": 9,
            "POSITION": 8,
            "TEXCOORD_0": 10
          },
          "indices": 11,
          "material": 2,
          "mode": 4
        }
      ]
    },
    {
      "name": "Object_3",
      "primitives": [
        {
          "attributes": {
            "NORMAL": 13,
            "POSITION": 12,
            "TEXCOORD_0": 14
          },
          "indices": 15,
          "material": 2,
          "mode": 4
        }
      ]
    },
    {
      "name": "Object_4",
      "primitives": [
        {
          "attributes": {
            "NORMAL": 17,
            "POSITION": 16,
            "TEXCOORD_0": 18
          },
          "indices": 19,
          "material": 2,
          "mode": 4
        }
      ]
    }
  ],
  "nodes": [
    {
      "children": [
        1
      ],
      "matrix": [
        1.0,
        0.0,
        0.0,
        0.0,
        0.0,
        2.220446049250313e-16,
        -1.0,
        0.0,
        0.0,
        1.0,
        2.220446049250313e-16,
        0.0,
        0.0,
        0.0,
        0.0,
        1.0
      ],
      "name": "Sketchfab_model"
    },
    {
      "children": [
        2,
        3,
        4,
        5,
        6
      ],
      "name": "Commode-Va.obj.cleaner.materialmerger.gles"
    },
    {
      "mesh": 0,
      "name": "Object_2"
    },
    {
      "mesh": 1,
      "name": "Object_3"
    },
    {
      "mesh": 2,
      "name": "Object_4"
    },
    {
      "mesh": 3,
      "name": "Object_5"
    },
    {
      "mesh": 4,
      "name": "Object_6"
    }
  ],
  "samplers": [
    {
      "magFilter": 9729,
      "minFilter": 9987,
      "wrapS": 10497,
      "wrapT": 10497
    }
  ],
  "scene": 0,
  "scenes": [
    {
      "name": "Sketchfab_Scene",
      "nodes": [
        0
      ]
    }
  ],
  "textures": [
    {
      "sampler": 0,
      "source": 0
    },
    {
      "sampler": 0,
      "source": 1
    }
  ]
}
