{
  "accessors": [
    {
      "bufferView": 3,
      "componentType": 5126,
      "count": 1186,
      "max": [
        0.3385216295719147,
        1.2385399341583252,
        0.2382347583770752
      ],
      "min": [
        -0.3368735909461975,
        -0.008484414778649807,
        -0.2382347583770752
      ],
      "type": "VEC3"
    },
    {
      "bufferView": 3,
      "byteOffset": 14232,
      "componentType": 5126,
      "count": 1186,
      "max": [
        1.0,
        1.0,
        1.0
      ],
      "min": [
        -1.0,
        -1.0,
        -1.0
      ],
      "type": "VEC3"
    },
    {
      "bufferView": 2,
      "componentType": 5126,
      "count": 1186,
      "max": [
        0.9908749461174011,
        0.9865718483924866
      ],
      "min": [
        0.015503402799367905,
        0.019287697970867157
      ],
      "type": "VEC2"
    },
    {
      "bufferView": 2,
      "byteOffset": 9488,
      "componentType": 5126,
      "count": 1186,
      "max": [
        0.0,
        9.313225746154785e-10
      ],
      "min": [
        0.0,
        9.313225746154785e-10
      ],
      "type": "VEC2"
    },
    {
      "bufferView": 1,
      "componentType": 5125,
      "count": 5904,
      "type": "SCALAR"
    },
    {
      "bufferView": 5,
      "componentType": 5126,
      "count": 5,
      "max": [
        100.00000762939453,
        3.502195278573539e-14,
        2.3841860752327193e-07,
        0.0,
        3.821368389230568e-15,
        100.0,
        0.0,
        0.0,
        0.0,
        1.6292068494294654e-07,
        100.0,
        0.0,
        0.0,
        0.0010000000474974513,
        0.0,
        1.0
      ],
      "min": [
        1.0,
        0.0,
        0.0,
        0.0,
        0.0,
        1.0,
        -1.6292068494294654e-07,
        0.0,
        -2.3841860752327193e-07,
        0.0,
        1.0,
        0.0,
        -1.1085349541482485e-23,
        0.0,
        -2.3841859042583735e-10,
        1.0
      ],
      "type": "MAT4"
    },
    {
      "bufferView": 0,
      "componentType": 5123,
      "count": 1186,
      "type": "VEC4"
    },
    {
      "bufferView": 4,
      "componentType": 5126,
      "count": 1186,
      "max": [
        1.0,
        0.0,
        0.0,
        0.0
      ],
      "min": [
        1.0,
        0.0,
        0.0,
        0.0
      ],
      "type": "VEC4"
    }
  ],
  "asset": {
    "extras": {
      "author": "beatrizaconrado (https://sketchfab.com/beatrizaconrado)",
      "license": "CC-BY-4.0 (http://creativecommons.org/licenses/by/4.0/)",
      "source": "https://sketchfab.com/3d-models/cactus-floor-lamp-76ce92d130b34b6a8f3be4f5fa5b8601",
      "title": "Cactus Floor Lamp"
    },
    "generator": "Sketchfab-12.67.0",
    "version": "2.0"
  },
  "bufferViews": [
    {
      "buffer": 0,
      "byteLength": 9488,
      "byteStride": 8,
      "name": "shortBufferViews",
      "target": 34962
    },
    {
      "buffer": 0,
      "byteLength": 23616,
      "byteOffset": 9488,
      "name": "floatBufferViews",
      "target": 34963
    },
    {
      "buffer": 0,
      "byteLength": 18976,
      "byteOffset": 33104,
      "byteStride": 8,
      "name": "floatBufferViews",
      "target": 34962
    },
    {
      "buffer": 0,
      "byteLength": 28464,
      "byteOffset": 52080,
      "byteStride": 12,
      "name": "floatBufferViews",
      "target": 34962
    },
    {
      "buffer": 0,
      "byteLength": 18976,
      "byteOffset": 80544,
      "byteStride": 16,
      "name": "floatBufferViews",
      "target": 34962
    },
    {
      "buffer": 0,
      "byteLength": 320,
      "byteOffset": 99520,
      "name": "floatBufferViews"
    }
  ],
  "buffers": [
    {
      "byteLength": 99840,
      "uri": "scene.bin"
    }
  ],
  "images": [
    {
      "uri": "textures/DIFFUSE.001_baseColor.png"
    }
  ],
  "materials": [
    {
      "doubleSided": true,
      "name": "DIFFUSE.001",
      "pbrMetallicRoughness": {
        "baseColorTexture": {
          "index": 0
        },
        "metallicFactor": 0.0,
        "roughnessFactor": 0.8211145618000169
      }
    }
  ],
  "meshes": [
    {
      "name": "s4studio_mesh_1_DIFFUSE.001_0",
      "primitives": [
        {
          "attributes": {
            "JOINTS_0": 6,
            "NORMAL": 1,
            "POSITION": 0,
            "TEXCOORD_0": 2,
            "TEXCOORD_1": 3,
            "WEIGHTS_0": 7
          },
          "indices": 4,
          "material": 0,
          "mode": 4
        }
      ]
    }
  ],
  "nodes": [
    {
      "children": [
        1
      ],
      "matrix": [
        1.0,
        0.0,
        0.0,
        0.0,
        0.0,
        2.220446049250313e-16,
        -1.0,
        0.0,
        0.0,
        1.0,
        2.220446049250313e-16,
        0.0,
        0.0,
        0.0,
        0.0,
        1.0
      ],
      "name": "Sketchfab_model"
    },
    {
      "children": [
        2
      ],
      "matrix": [
        1.0,
        0.0,
        0.0,
        0.0,
        0.0,
        0.0,
        1.0,
        0.0,
        0.0,
        -1.0,
        0.0,
        0.0,
        0.0,
        0.0,
        0.0,
        1.0
      ],
      "name": "9e4ea74f820e4dc9b7044acce0aa0d35.fbx"
    },
    {
      "children": [
        3
      ],
      "name": "RootNode"
    },
    {
      "children": [
        4
      ],
      "matrix": [
        100.0,
        0.0,
        0.0,
        0.0,
        0.0,
        -1.629206793918314e-05,
        -99.99999999999868,
        0.0,
        0.0,
        99.99999999999868,
        -1.629206793918314e-05,
        0.0,
        0.0,
        0.0,
        0.0,
        1.0
      ],
      "name": "rig"
    },
    {
      "children": [
        5,
        11,
        10
      ],
      "name": "Object_4"
    },
    {
      "children": [
        6
      ],
      "name": "_rootJoint"
    },
    {
      "children": [
        7
      ],
      "name": "b__ROOT___00",
      "rotation": [
        0.7071068286895752,
        8.429372400087232e-08,
        8.42937097900176e-08,
        0.7071067094802856
      ],
      "scale": [
        0.9999999403953552,
        1.0,
        1.0
      ],
      "translation": [
        -6.600236234960668e-18,
        4.371138867531599e-11,
        -0.0010000000474974513
      ]
    },
    {
      "children": [
        8
      ],
      "name": "transformBone_01",
      "rotation": [
        -7.523164742093657e-37,
        -1.4210854715202004e-14,
        1.0587911840678754e-21,
        1.0
      ],
      "translation": [
        3.7223127564886245e-24,
        1.235990476633475e-17,
        1.1920930909070648e-10
      ]
    },
    {
      "children": [
        9
      ],
      "name": "_FX__02",
      "rotation": [
        -7.52316384526264e-37,
        -0.0,
        1.0587911840678754e-21,
        1.0
      ],
      "translation": [
        9.926166561775427e-24,
        3.165870343657673e-17,
        1.1920929521291868e-10
      ]
    },
    {
      "name": "_FX__end_03",
      "rotation": [
        -3.76158192263132e-37,
        0.0,
        -4.450473898201905e-30,
        1.0
      ],
      "translation": [
        0.0,
        0.0010000000474974513,
        5.169878828456423e-26
      ]
    },
    {
      "matrix": [
        100.0000042915392,
        -1.2160101719215616e-19,
        -7.958077285260406e-13,
        0.0,
        -7.958076943737079e-13,
        7.388704302484017e-13,
        -100.00000000000834,
        0.0,
        1.2160101785359205e-19,
        100.00000000000266,
        7.388704302483597e-13,
        0.0,
        1.6636650309007093e-22,
        3.259630954044468e-09,
        5.840398050436808e-17,
        1.0
      ],
      "name": "Object_10"
    },
    {
      "mesh": 0,
      "name": "Object_11",
      "skin": 0
    }
  ],
  "samplers": [
    {
      "magFilter": 9729,
      "minFilter": 9987,
      "wrapS": 10497,
      "wrapT": 10497
    }
  ],
  "scene": 0,
  "scenes": [
    {
      "name": "Sketchfab_Scene",
      "nodes": [
        0
      ]
    }
  ],
  "skins": [
    {
      "inverseBindMatrices": 5,
      "joints": [
        5,
        6,
        7,
        8,
        9
      ],
      "skeleton": 5
    }
  ],
  "textures": [
    {
      "sampler": 0,
      "source": 0
    }
  ]
}
